<svg width="44" height="43" viewBox="0 0 44 43" fill="none" xmlns="http://www.w3.org/2000/svg">
<path d="M22.8594 34.2461L32.7031 40.4961C33.9727 41.2969 35.5352 40.1055 35.1641 38.6407L32.3125 27.4297C32.2354 27.119 32.2477 26.7928 32.3479 26.4887C32.4481 26.1846 32.6322 25.915 32.8789 25.711L41.707 18.3477C42.8594 17.3907 42.2734 15.4571 40.7695 15.3594L29.2461 14.6172C28.9317 14.5989 28.6294 14.4895 28.3762 14.3022C28.123 14.1149 27.9298 13.8578 27.8203 13.5625L23.5234 2.74224C23.4097 2.42955 23.2025 2.15943 22.9299 1.96855C22.6574 1.77768 22.3327 1.67529 22 1.67529C21.6673 1.67529 21.3426 1.77768 21.07 1.96855C20.7975 2.15943 20.5903 2.42955 20.4766 2.74224L16.1797 13.5625C16.0702 13.8578 15.877 14.1149 15.6238 14.3022C15.3706 14.4895 15.0683 14.5989 14.7539 14.6172L3.23047 15.3594C1.72656 15.4571 1.14062 17.3907 2.29297 18.3477L11.1211 25.711C11.3678 25.915 11.5519 26.1846 11.6521 26.4887C11.7523 26.7928 11.7646 27.119 11.6875 27.4297L9.05078 37.8204C8.60156 39.5782 10.4766 41.004 11.9805 40.0469L21.1406 34.2461C21.3975 34.0828 21.6956 33.9961 22 33.9961C22.3044 33.9961 22.6025 34.0828 22.8594 34.2461V34.2461Z" stroke="#E13C5A" stroke-width="3.125" stroke-linecap="round" stroke-linejoin="round"/>
</svg>
